<svg width="20" height="20" viewBox="0 0 20 20" fill="none" xmlns="http://www.w3.org/2000/svg">
<path d="M10.0003 17.5L9.91695 17.3749C9.33808 16.5066 9.04864 16.0725 8.66624 15.7582C8.32771 15.4799 7.93763 15.2712 7.51833 15.1438C7.0447 15 6.52292 15 5.47935 15H4.33366C3.40024 15 2.93353 15 2.57701 14.8183C2.2634 14.6586 2.00844 14.4036 1.84865 14.09C1.66699 13.7335 1.66699 13.2668 1.66699 12.3333V5.16667C1.66699 4.23325 1.66699 3.76654 1.84865 3.41002C2.00844 3.09641 2.2634 2.84144 2.57701 2.68166C2.93353 2.5 3.40024 2.5 4.33366 2.5H4.66699C6.53383 2.5 7.46725 2.5 8.18029 2.86331C8.8075 3.18289 9.31744 3.69282 9.63701 4.32003C10.0003 5.03307 10.0003 5.96649 10.0003 7.83333M10.0003 17.5V7.83333M10.0003 17.5L10.0837 17.3749C10.6626 16.5066 10.952 16.0725 11.3344 15.7582C11.6729 15.4799 12.063 15.2712 12.4823 15.1438C12.956 15 13.4777 15 14.5213 15H15.667C16.6004 15 17.0671 15 17.4236 14.8183C17.7372 14.6586 17.9922 14.4036 18.152 14.09C18.3337 13.7335 18.3337 13.2668 18.3337 12.3333V5.16667C18.3337 4.23325 18.3337 3.76654 18.152 3.41002C17.9922 3.09641 17.7372 2.84144 17.4236 2.68166C17.0671 2.5 16.6004 2.5 15.667 2.5H15.3337C13.4668 2.5 12.5334 2.5 11.8204 2.86331C11.1932 3.18289 10.6832 3.69282 10.3636 4.32003C10.0003 5.03307 10.0003 5.96649 10.0003 7.83333" stroke="#4D5761" stroke-width="1.5" stroke-linecap="round" stroke-linejoin="round"/>
</svg>
