<svg width="20" height="20" viewBox="0 0 20 20" fill="none" xmlns="http://www.w3.org/2000/svg">
<path d="M17.0837 6.66667V13.5C17.0837 14.9001 17.0837 15.6002 16.8112 16.135C16.5715 16.6054 16.189 16.9878 15.7186 17.2275C15.1839 17.5 14.4838 17.5 13.0837 17.5H6.91699C5.51686 17.5 4.8168 17.5 4.28202 17.2275C3.81161 16.9878 3.42916 16.6054 3.18948 16.135C2.91699 15.6002 2.91699 14.9001 2.91699 13.5V6.66667M3.00033 2.5H17.0003C17.467 2.5 17.7004 2.5 17.8787 2.59083C18.0355 2.67072 18.1629 2.79821 18.2428 2.95501C18.3337 3.13327 18.3337 3.36662 18.3337 3.83333V5.33333C18.3337 5.80004 18.3337 6.0334 18.2428 6.21166C18.1629 6.36846 18.0355 6.49594 17.8787 6.57584C17.7004 6.66667 17.467 6.66667 17.0003 6.66667H3.00033C2.53362 6.66667 2.30026 6.66667 2.122 6.57584C1.9652 6.49594 1.83771 6.36846 1.75782 6.21166C1.66699 6.0334 1.66699 5.80004 1.66699 5.33333V3.83333C1.66699 3.36662 1.66699 3.13327 1.75782 2.95501C1.83771 2.79821 1.9652 2.67072 2.122 2.59083C2.30026 2.5 2.53362 2.5 3.00033 2.5ZM8.00033 9.58333H12.0003C12.467 9.58333 12.7004 9.58333 12.8787 9.67416C13.0355 9.75406 13.1629 9.88154 13.2428 10.0383C13.3337 10.2166 13.3337 10.45 13.3337 10.9167V11.5833C13.3337 12.05 13.3337 12.2834 13.2428 12.4617C13.1629 12.6185 13.0355 12.7459 12.8787 12.8258C12.7004 12.9167 12.467 12.9167 12.0003 12.9167H8.00033C7.53362 12.9167 7.30026 12.9167 7.122 12.8258C6.9652 12.7459 6.83771 12.6185 6.75782 12.4617C6.66699 12.2834 6.66699 12.05 6.66699 11.5833V10.9167C6.66699 10.45 6.66699 10.2166 6.75782 10.0383C6.83771 9.88154 6.9652 9.75406 7.122 9.67416C7.30026 9.58333 7.53362 9.58333 8.00033 9.58333Z" stroke="#4D5761" stroke-width="1.5" stroke-linecap="round" stroke-linejoin="round"/>
</svg>
