<svg width="20" height="20" viewBox="0 0 20 20" fill="none" xmlns="http://www.w3.org/2000/svg">
<path d="M17.5 4.16669C17.5 5.5474 14.1421 6.66669 10 6.66669C5.85786 6.66669 2.5 5.5474 2.5 4.16669M17.5 4.16669C17.5 2.78598 14.1421 1.66669 10 1.66669C5.85786 1.66669 2.5 2.78598 2.5 4.16669M17.5 4.16669V15.8334C17.5 17.2167 14.1667 18.3334 10 18.3334C5.83333 18.3334 2.5 17.2167 2.5 15.8334V4.16669M17.5 10C17.5 11.3834 14.1667 12.5 10 12.5C5.83333 12.5 2.5 11.3834 2.5 10" stroke="#4D5761" stroke-width="1.5" stroke-linecap="round" stroke-linejoin="round"/>
</svg>
