<svg width="20" height="20" viewBox="0 0 20 20" fill="none" xmlns="http://www.w3.org/2000/svg">
<path fill-rule="evenodd" clip-rule="evenodd" d="M13.7988 4.57367C13.7988 5.47274 14.5277 6.20158 15.4268 6.20158C16.3258 6.20158 17.0547 5.47274 17.0547 4.57367C17.0547 3.6746 16.3258 2.94576 15.4268 2.94576C14.5277 2.94576 13.7988 3.6746 13.7988 4.57367ZM12.4844 5.27134C12.7994 6.60469 13.9972 7.59693 15.4268 7.59693C17.0964 7.59693 18.45 6.24337 18.45 4.57367C18.45 2.90397 17.0964 1.55042 15.4268 1.55042C13.9972 1.55042 12.7994 2.54265 12.4844 3.876H10.9306C10.0316 3.876 9.30272 4.60483 9.30272 5.5039V14.4962C9.30272 14.6246 9.1986 14.7287 9.07016 14.7287H7.51639C7.20143 13.3954 6.00361 12.4031 4.57404 12.4031C2.90434 12.4031 1.55078 13.7567 1.55078 15.4264C1.55078 17.0961 2.90434 18.4496 4.57404 18.4496C6.00361 18.4496 7.20144 17.4574 7.51639 16.1241H9.07016C9.96923 16.1241 10.6981 15.3952 10.6981 14.4962V5.5039C10.6981 5.37546 10.8022 5.27134 10.9306 5.27134H12.4844ZM4.57404 17.0543C3.67497 17.0543 2.94613 16.3255 2.94613 15.4264C2.94613 14.5273 3.67497 13.7985 4.57404 13.7985C5.47311 13.7985 6.20194 14.5273 6.20194 15.4264C6.20194 16.3255 5.47311 17.0543 4.57404 17.0543Z" fill="#4D5761"/>
</svg>
