<svg width="20" height="20" viewBox="0 0 20 20" fill="none" xmlns="http://www.w3.org/2000/svg">
<path d="M10.0007 4.16665C10.9211 4.16665 11.6673 3.42045 11.6673 2.49998C11.6673 1.57951 10.9211 0.833313 10.0007 0.833313C9.08018 0.833313 8.33398 1.57951 8.33398 2.49998C8.33398 3.42045 9.08018 4.16665 10.0007 4.16665Z" fill="#4D5761"/>
<path d="M16.6667 8.33333C17.5871 8.33333 18.3333 7.58714 18.3333 6.66667C18.3333 5.74619 17.5871 5 16.6667 5C15.7462 5 15 5.74619 15 6.66667C15 7.58714 15.7462 8.33333 16.6667 8.33333Z" fill="#4D5761"/>
<path d="M16.6667 15.8333C17.5871 15.8333 18.3333 15.0871 18.3333 14.1667C18.3333 13.2462 17.5871 12.5 16.6667 12.5C15.7462 12.5 15 13.2462 15 14.1667C15 15.0871 15.7462 15.8333 16.6667 15.8333Z" fill="#4D5761"/>
<path d="M10.0007 19.1666C10.9211 19.1666 11.6673 18.4205 11.6673 17.5C11.6673 16.5795 10.9211 15.8333 10.0007 15.8333C9.08018 15.8333 8.33398 16.5795 8.33398 17.5C8.33398 18.4205 9.08018 19.1666 10.0007 19.1666Z" fill="#4D5761"/>
<path d="M3.33366 15.8333C4.25413 15.8333 5.00033 15.0871 5.00033 14.1667C5.00033 13.2462 4.25413 12.5 3.33366 12.5C2.41318 12.5 1.66699 13.2462 1.66699 14.1667C1.66699 15.0871 2.41318 15.8333 3.33366 15.8333Z" fill="#4D5761"/>
<path d="M3.33366 8.33333C4.25413 8.33333 5.00033 7.58714 5.00033 6.66667C5.00033 5.74619 4.25413 5 3.33366 5C2.41318 5 1.66699 5.74619 1.66699 6.66667C1.66699 7.58714 2.41318 8.33333 3.33366 8.33333Z" fill="#4D5761"/>
<path d="M10 2.5L16.4952 6.25V13.75L10 17.5L3.50481 13.75V6.25L10 2.5Z" stroke="#4D5761" stroke-linecap="round" stroke-linejoin="round"/>
<path d="M10 2.5L16.4952 13.75H3.50481L10 2.5Z" stroke="#4D5761" stroke-linecap="round" stroke-linejoin="round"/>
</svg>
