<?xml version="1.0" encoding="UTF-8"?>
<svg xmlns="http://www.w3.org/2000/svg" xmlns:xlink="http://www.w3.org/1999/xlink" width="24px" height="24px" viewBox="0 0 24 24" version="1.1">
<path d="M 4.234375 2.628906 C 3.109375 2.820312 2.4375 3.371094 2.160156 4.332031 C 2.089844 4.558594 2.039062 5.867188 2.039062 7.246094 C 2.039062 9.539062 2.015625 9.804688 1.789062 10.273438 C 1.644531 10.597656 1.414062 10.847656 1.1875 10.945312 C 0.863281 11.089844 0.839844 11.148438 0.839844 11.699219 C 0.839844 12.265625 0.863281 12.324219 1.246094 12.527344 C 1.945312 12.898438 2.039062 13.332031 2.039062 16.078125 C 2.039062 17.386719 2.101562 18.742188 2.171875 19.078125 C 2.425781 20.28125 3.289062 20.867188 4.777344 20.878906 L 5.640625 20.878906 L 5.640625 19.558594 L 5.160156 19.558594 C 4.882812 19.558594 4.5 19.476562 4.308594 19.367188 C 3.683594 19.054688 3.601562 18.636719 3.601562 15.996094 C 3.601562 14.628906 3.539062 13.414062 3.46875 13.140625 C 3.382812 12.851562 3.144531 12.480469 2.867188 12.214844 L 2.398438 11.761719 L 2.855469 11.351562 C 3.527344 10.738281 3.601562 10.355469 3.601562 7.585938 C 3.601562 4.296875 3.707031 4.054688 5.21875 3.9375 C 5.566406 3.898438 5.578125 3.886719 5.578125 3.238281 L 5.578125 2.578125 L 5.160156 2.566406 C 4.933594 2.554688 4.511719 2.578125 4.234375 2.628906 Z M 4.234375 2.628906 " fill="#4D5761"/>
<path d="M 18 3.226562 L 18 3.960938 L 18.515625 3.960938 C 19.1875 3.960938 19.570312 4.175781 19.824219 4.679688 C 20.003906 5.039062 20.039062 5.460938 20.039062 7.5 C 20.039062 8.878906 20.101562 10.105469 20.171875 10.378906 C 20.257812 10.65625 20.496094 11.039062 20.761719 11.292969 L 21.214844 11.722656 L 20.746094 12.15625 C 20.496094 12.40625 20.242188 12.78125 20.171875 13.042969 C 20.101562 13.296875 20.039062 14.59375 20.039062 15.9375 C 20.039062 18.730469 19.957031 19.09375 19.273438 19.378906 C 19.03125 19.476562 18.660156 19.558594 18.421875 19.558594 L 18 19.558594 L 18 20.878906 L 18.839844 20.878906 C 20.257812 20.878906 21.097656 20.351562 21.421875 19.273438 C 21.550781 18.828125 21.601562 18.023438 21.601562 16.210938 C 21.601562 14.015625 21.636719 13.679688 21.839844 13.222656 C 22.007812 12.863281 22.1875 12.660156 22.441406 12.5625 C 22.777344 12.433594 22.800781 12.382812 22.800781 11.820312 C 22.800781 11.28125 22.765625 11.195312 22.453125 11.015625 C 21.707031 10.597656 21.671875 10.441406 21.601562 7.261719 C 21.539062 4.632812 21.515625 4.34375 21.277344 3.898438 C 20.820312 3.023438 20.269531 2.710938 18.875 2.578125 L 18 2.496094 Z M 18 3.226562 " fill="#4D5761"/>
<path d="M 12.71875 2.964844 C 12.445312 3.070312 12.121094 3.492188 12.035156 3.816406 C 11.929688 4.261719 12.132812 4.703125 12.601562 5.015625 C 13.128906 5.375 13.609375 5.304688 14.074219 4.800781 C 14.722656 4.078125 14.328125 3.035156 13.367188 2.941406 C 13.117188 2.902344 12.816406 2.914062 12.71875 2.964844 Z M 12.71875 2.964844 " fill="#4D5761"/>
<path d="M 10.546875 6.613281 C 10.246094 6.910156 10.261719 7.261719 10.570312 7.570312 C 10.777344 7.777344 10.894531 7.800781 11.316406 7.726562 C 12 7.609375 12.253906 7.632812 12.46875 7.859375 C 12.636719 8.027344 12.660156 8.617188 12.695312 12.371094 C 12.757812 18.058594 12.636719 18.9375 11.734375 19.585938 C 11.21875 19.945312 9.851562 19.992188 9.515625 19.65625 C 9.359375 19.488281 9.335938 19.414062 9.457031 19.296875 C 9.683594 19.066406 9.636719 18.3125 9.382812 18.085938 C 8.976562 17.710938 8.484375 17.699219 8.0625 18.058594 C 7.585938 18.46875 7.476562 18.984375 7.738281 19.65625 C 8.171875 20.722656 9.421875 21.335938 10.933594 21.203125 C 11.941406 21.121094 12.71875 20.746094 13.308594 20.074219 C 14.195312 19.078125 14.183594 19.128906 14.28125 12.539062 C 14.339844 9.253906 14.328125 6.601562 14.269531 6.527344 C 14.207031 6.457031 13.523438 6.394531 12.46875 6.394531 C 10.957031 6.382812 10.753906 6.40625 10.546875 6.613281 Z M 10.546875 6.613281 " fill="#4D5761"/>
</svg>
