<svg width="20" height="20" viewBox="0 0 20 20" fill="none" xmlns="http://www.w3.org/2000/svg">
<path d="M7.49967 9.58333L9.16634 11.25L12.9163 7.49999M16.6663 9.99999C16.6663 14.0904 12.2047 17.0653 10.5813 18.0124C10.3968 18.12 10.3046 18.1738 10.1744 18.2018C10.0734 18.2234 9.92597 18.2234 9.82494 18.2018C9.69475 18.1738 9.60251 18.12 9.41802 18.0124C7.79464 17.0653 3.33301 14.0904 3.33301 9.99999V6.01466C3.33301 5.3484 3.33301 5.01527 3.44197 4.72891C3.53824 4.47594 3.69466 4.25023 3.89772 4.07127C4.12759 3.86869 4.43951 3.75172 5.06334 3.51778L9.53151 1.84222C9.70476 1.77725 9.79138 1.74477 9.88049 1.73189C9.95954 1.72047 10.0398 1.72047 10.1189 1.73189C10.208 1.74477 10.2946 1.77725 10.4678 1.84222L14.936 3.51778C15.5598 3.75172 15.8718 3.86869 16.1016 4.07127C16.3047 4.25023 16.4611 4.47594 16.5574 4.72891C16.6663 5.01527 16.6663 5.3484 16.6663 6.01466V9.99999Z" stroke="#4D5761" stroke-width="1.5" stroke-linecap="round" stroke-linejoin="round"/>
</svg>
