<svg width="32" height="32" viewBox="0 0 32 32" fill="none" xmlns="http://www.w3.org/2000/svg">
<path d="M13.6097 7.10439V12.8184C13.6097 13.1139 13.5516 13.4064 13.4385 13.6794C13.3254 13.9524 13.1597 14.2005 12.9507 14.4094L8.85974 18.5004M13.6097 7.10439C13.3587 7.12739 13.1087 7.15439 12.8597 7.18639ZM13.6097 7.10439C15.1065 6.9652 16.613 6.9652 18.1097 7.10439ZM18.1097 7.10439V12.8184C18.1097 13.4154 18.3467 13.9884 18.7687 14.4094L23.6597 19.3004M18.1097 7.10439C18.3607 7.12739 18.6107 7.15439 18.8597 7.18639ZM23.6597 19.3004L22.0897 19.6934C19.9967 20.2106 17.7879 19.9649 15.8597 19.0004C13.9316 18.0359 11.7227 17.7902 9.62974 18.3074L8.85974 18.5004M23.6597 19.3004L25.0617 20.7024C26.2937 21.9344 25.7117 24.0204 23.9947 24.3134C21.3073 24.7715 18.5859 25.0013 15.8597 25.0004C13.0867 25.0004 10.3687 24.7654 7.72474 24.3134C6.00674 24.0204 5.42474 21.9344 6.65774 20.7034L8.85974 18.5004" fill="#0B89D0"/>
<path d="M13.6097 7.10439V12.8184C13.6097 13.1139 13.5516 13.4064 13.4385 13.6794C13.3254 13.9524 13.1597 14.2005 12.9507 14.4094L8.85974 18.5004M13.6097 7.10439C13.3587 7.12739 13.1087 7.15439 12.8597 7.18639M13.6097 7.10439C15.1065 6.9652 16.613 6.9652 18.1097 7.10439M8.85974 18.5004L9.62974 18.3074C11.7227 17.7902 13.9316 18.0359 15.8597 19.0004C17.7879 19.9649 19.9967 20.2106 22.0897 19.6934L23.6597 19.3004M8.85974 18.5004L6.65774 20.7034C5.42474 21.9344 6.00674 24.0204 7.72474 24.3134C10.3687 24.7654 13.0867 25.0004 15.8597 25.0004C18.5859 25.0013 21.3073 24.7715 23.9947 24.3134C25.7117 24.0204 26.2937 21.9344 25.0617 20.7024L23.6597 19.3004M18.1097 7.10439V12.8184C18.1097 13.4154 18.3467 13.9884 18.7687 14.4094L23.6597 19.3004M18.1097 7.10439C18.3607 7.12739 18.6107 7.15439 18.8597 7.18639" stroke="#0B89D0" stroke-width="1.5" stroke-linecap="round" stroke-linejoin="round"/>
</svg>
