<svg width="32" height="32" viewBox="0 0 32 32" fill="none" xmlns="http://www.w3.org/2000/svg">
<path d="M17.6237 14.0935C17.6237 9.74249 14.4576 7.84621 11.5021 7.84621H7.89824C4.93874 7.84621 1.72826 9.51884 1.72826 13.8699C1.72826 18.2209 5.40031 19.9582 8.35584 19.9582H11.0048L14.9755 23.996L17.627 24L17.6237 14.0935C17.6237 14.1178 17.6237 14.0693 17.6237 14.0935ZM14.9702 20.4055L12.3292 17.2636H8.35584C6.43405 17.2636 4.39836 16.3131 4.39836 13.8699C4.39836 11.4266 6.13009 10.5172 8.05254 10.5172H11.3537C13.2755 10.5172 14.9768 11.5802 14.9768 14.0234L14.9695 20.4055H14.9702Z" fill="#4d5761"/>
<path d="M30.2717 23.9586H23.5978C21.623 23.9586 20.0218 22.3297 20.0218 20.321V8.23465H22.6707V20.0771C22.6707 20.7467 23.2044 21.2897 23.8627 21.2897H30.2717V23.9586Z" fill="#4d5761"/>
</svg>
