<svg width="57" height="24" viewBox="0 0 57 24" fill="none" xmlns="http://www.w3.org/2000/svg">
<rect width="57" height="24" rx="12" fill="#80A3FF"/>
<path d="M13.0313 5.72113H17.7016C19.1156 5.72113 19.8227 6.36329 19.8227 7.64761V16.0735C19.8227 17.3578 19.1156 18 17.7016 18H13.0313V5.72113ZM17.5654 15.84V7.88112C17.5654 7.67355 17.5265 7.53734 17.4486 7.47247C17.3708 7.39463 17.2281 7.35571 17.0205 7.35571H15.2692V16.3654H17.0205C17.2281 16.3654 17.3708 16.333 17.4486 16.2681C17.5265 16.1903 17.5654 16.0476 17.5654 15.84ZM23.6618 5.72113H26.0358C27.4499 5.72113 28.1569 6.36329 28.1569 7.64761V16.0735C28.1569 17.3578 27.4499 18 26.0358 18H23.6618C22.2477 18 21.5407 17.3578 21.5407 16.0735V7.64761C21.5407 6.36329 22.2477 5.72113 23.6618 5.72113ZM25.9191 15.7622V7.95896C25.9191 7.75139 25.8802 7.61517 25.8023 7.55031C25.7245 7.47247 25.5818 7.43355 25.3742 7.43355H24.3429C24.1223 7.43355 23.9731 7.47247 23.8953 7.55031C23.8175 7.61517 23.7786 7.75139 23.7786 7.95896V15.7622C23.7786 15.9697 23.8175 16.1124 23.8953 16.1903C23.9731 16.2551 24.1223 16.2876 24.3429 16.2876H25.3742C25.5818 16.2876 25.7245 16.2551 25.8023 16.1903C25.8802 16.1124 25.9191 15.9697 25.9191 15.7622ZM36.3826 9.78814H34.1253V7.88112C34.1253 7.67355 34.0864 7.53734 34.0086 7.47247C33.9307 7.39463 33.788 7.35571 33.5805 7.35571H32.6659C32.4583 7.35571 32.3156 7.39463 32.2378 7.47247C32.1599 7.53734 32.121 7.67355 32.121 7.88112V15.8595C32.121 16.067 32.1599 16.2097 32.2378 16.2876C32.3156 16.3524 32.4583 16.3849 32.6659 16.3849H33.5805C33.788 16.3849 33.9307 16.3524 34.0086 16.2876C34.0864 16.2097 34.1253 16.067 34.1253 15.8595V13.9914H36.3826V16.093C36.3826 17.3773 35.6756 18.0195 34.2615 18.0195H31.9848C30.5707 18.0195 29.8637 17.3773 29.8637 16.093V7.64761C29.8637 6.36329 30.5707 5.72113 31.9848 5.72113H34.2615C35.6756 5.72113 36.3826 6.36329 36.3826 7.64761V9.78814ZM41.8533 15.7622V13.1352C41.8533 12.9276 41.8144 12.7914 41.7365 12.7265C41.6587 12.6487 41.516 12.6097 41.3084 12.6097H39.7322C38.396 12.6097 37.7279 11.9611 37.7279 10.6638V7.64761C37.7279 6.36329 38.4284 5.72113 39.8295 5.72113H41.97C43.3711 5.72113 44.0717 6.36329 44.0717 7.64761V9.36003H41.8144V7.95896C41.8144 7.75139 41.7754 7.61517 41.6976 7.55031C41.6198 7.47247 41.4771 7.43355 41.2695 7.43355H40.53C40.3095 7.43355 40.1603 7.47247 40.0825 7.55031C40.0046 7.61517 39.9657 7.75139 39.9657 7.95896V10.4303C39.9657 10.6379 40.0046 10.7806 40.0825 10.8584C40.1603 10.9233 40.3095 10.9557 40.53 10.9557H42.0673C43.4295 10.9557 44.1106 11.5914 44.1106 12.8627V16.0735C44.1106 17.3578 43.4035 18 41.9895 18H39.8879C38.4738 18 37.7668 17.3578 37.7668 16.0735V14.3806H40.0046V15.7622C40.0046 15.9697 40.0436 16.1124 40.1214 16.1903C40.1992 16.2551 40.3484 16.2876 40.569 16.2876H41.3084C41.516 16.2876 41.6587 16.2551 41.7365 16.1903C41.8144 16.1124 41.8533 15.9697 41.8533 15.7622Z" fill="white"/>
</svg>
