<svg width="36" height="22" viewBox="0 0 36 22" fill="none" xmlns="http://www.w3.org/2000/svg">
<rect x="0.0683594" y="0.609467" width="35.7811" height="20.7811" rx="5.89053" fill="#000615"/>
<path d="M6.70826 6.57938H10.1012C11.1285 6.57938 11.6422 7.04591 11.6422 7.97897V14.1004C11.6422 15.0335 11.1285 15.5 10.1012 15.5H6.70826V6.57938ZM10.0022 13.9308V8.14862C10.0022 7.99782 9.97397 7.89886 9.91742 7.85173C9.86087 7.79519 9.7572 7.76691 9.6064 7.76691H8.33405V14.3125H9.6064C9.7572 14.3125 9.86087 14.2889 9.91742 14.2418C9.97397 14.1852 10.0022 14.0816 10.0022 13.9308ZM14.4313 6.57938H16.156C17.1834 6.57938 17.697 7.04591 17.697 7.97897V14.1004C17.697 15.0335 17.1834 15.5 16.156 15.5H14.4313C13.404 15.5 12.8903 15.0335 12.8903 14.1004V7.97897C12.8903 7.04591 13.404 6.57938 14.4313 6.57938ZM16.0712 13.8742V8.20517C16.0712 8.05437 16.0429 7.95541 15.9864 7.90828C15.9298 7.85173 15.8262 7.82346 15.6754 7.82346H14.9261C14.7659 7.82346 14.6575 7.85173 14.6009 7.90828C14.5444 7.95541 14.5161 8.05437 14.5161 8.20517V13.8742C14.5161 14.025 14.5444 14.1287 14.6009 14.1852C14.6575 14.2324 14.7659 14.2559 14.9261 14.2559H15.6754C15.8262 14.2559 15.9298 14.2324 15.9864 14.1852C16.0429 14.1287 16.0712 14.025 16.0712 13.8742ZM23.673 9.53407H22.0331V8.14862C22.0331 7.99782 22.0048 7.89886 21.9482 7.85173C21.8917 7.79519 21.788 7.76691 21.6372 7.76691H20.9728C20.822 7.76691 20.7183 7.79519 20.6617 7.85173C20.6052 7.89886 20.5769 7.99782 20.5769 8.14862V13.9449C20.5769 14.0957 20.6052 14.1994 20.6617 14.2559C20.7183 14.303 20.822 14.3266 20.9728 14.3266H21.6372C21.788 14.3266 21.8917 14.303 21.9482 14.2559C22.0048 14.1994 22.0331 14.0957 22.0331 13.9449V12.5877H23.673V14.1145C23.673 15.0476 23.1593 15.5141 22.132 15.5141H20.478C19.4507 15.5141 18.937 15.0476 18.937 14.1145V7.97897C18.937 7.04591 19.4507 6.57938 20.478 6.57938H22.132C23.1593 6.57938 23.673 7.04591 23.673 7.97897V9.53407ZM27.6474 13.8742V11.9657C27.6474 11.8149 27.6192 11.7159 27.5626 11.6688C27.5061 11.6122 27.4024 11.584 27.2516 11.584H26.1065C25.1357 11.584 24.6503 11.1127 24.6503 10.1702V7.97897C24.6503 7.04591 25.1593 6.57938 26.1772 6.57938H27.7323C28.7501 6.57938 29.2591 7.04591 29.2591 7.97897V9.22305H27.6192V8.20517C27.6192 8.05437 27.5909 7.95541 27.5343 7.90828C27.4778 7.85173 27.3741 7.82346 27.2233 7.82346H26.6861C26.5259 7.82346 26.4175 7.85173 26.3609 7.90828C26.3044 7.95541 26.2761 8.05437 26.2761 8.20517V10.0006C26.2761 10.1514 26.3044 10.2551 26.3609 10.3116C26.4175 10.3587 26.5259 10.3823 26.6861 10.3823H27.8029C28.7926 10.3823 29.2874 10.8441 29.2874 11.7678V14.1004C29.2874 15.0335 28.7737 15.5 27.7464 15.5H26.2196C25.1923 15.5 24.6786 15.0335 24.6786 14.1004V12.8705H26.3044V13.8742C26.3044 14.025 26.3327 14.1287 26.3892 14.1852C26.4458 14.2324 26.5542 14.2559 26.7144 14.2559H27.2516C27.4024 14.2559 27.5061 14.2324 27.5626 14.1852C27.6192 14.1287 27.6474 14.025 27.6474 13.8742Z" fill="white"/>
</svg>
