<svg width="108" height="33" viewBox="0 0 108 33" fill="none" xmlns="http://www.w3.org/2000/svg">
<path d="M31.1151 11.215C32.0544 8.26091 31.4894 2.36759 29.6694 0.191883C29.4309 -0.0935167 28.987 -0.0527454 28.7888 0.262306L26.5469 3.81683C25.9929 4.52847 24.9949 4.69156 24.2427 4.19489C21.81 2.58627 18.904 1.65224 15.7814 1.65224C12.6589 1.65224 9.75292 2.58627 7.32023 4.19489C6.57171 4.69156 5.57368 4.52477 5.01596 3.81683L2.77407 0.262306C2.57593 -0.0527454 2.13195 -0.0898102 1.89345 0.191883C0.0735196 2.3713 -0.49154 8.26461 0.44778 11.215C0.759664 12.1972 0.844056 13.235 0.660595 14.2432C0.477134 15.2439 0.293673 16.4522 0.293673 17.2936C0.293673 25.9334 7.2285 32.935 15.7778 32.935C24.3307 32.935 31.2619 25.9297 31.2619 17.2936C31.2619 16.4522 31.0784 15.2439 30.895 14.2432C30.7152 13.235 30.8032 12.1972 31.1151 11.215ZM15.7778 29.4435C9.16585 29.4435 3.79044 24.0098 3.79044 17.3307C3.79044 17.112 3.79778 16.897 3.80878 16.682C4.04728 12.1305 6.78452 8.24237 10.6555 6.38913C12.2076 5.64042 13.9468 5.22529 15.7814 5.22529C17.6161 5.22529 19.3516 5.64042 20.9073 6.39284C24.7784 8.24608 27.5156 12.1379 27.7541 16.6858C27.7651 16.9007 27.7725 17.1194 27.7725 17.3344C27.7688 24.0098 22.3897 29.4435 15.7778 29.4435Z" fill="#000615"/>
<path d="M20.9722 21.9938L17.9084 16.6268L15.2812 12.153C15.2188 12.0456 15.1051 11.9825 14.984 11.9825H12.4742C12.3495 11.9825 12.2357 12.0493 12.1734 12.1605C12.111 12.2679 12.1147 12.4014 12.177 12.5089L14.6905 16.775L11.3184 21.9715C11.2487 22.079 11.2451 22.2162 11.3038 22.3273C11.3625 22.4385 11.4799 22.509 11.6083 22.509H14.1364C14.2538 22.509 14.3639 22.4497 14.4263 22.3496L16.2499 19.4734L17.8863 22.3385C17.9487 22.446 18.0625 22.5127 18.1836 22.5127H20.6749C20.7997 22.5127 20.9134 22.446 20.9722 22.3385C21.0345 22.2347 21.0345 22.1013 20.9722 21.9938Z" fill="#000615"/>
<path d="M44.5578 8.23401H47.7599V25.7957H44.5578V18.3129H40.9403V25.7994H37.7383V8.23401H40.9403V15.8603H44.5578V8.23401Z" fill="#000615"/>
<path d="M57.6374 25.7994L56.9683 22.1517H53.1265L52.5126 25.7994H49.3105L52.8435 8.23767H57.1558L60.8578 25.7994H57.6374ZM53.5457 19.7285H56.5235L54.9941 11.3227L53.5457 19.7285Z" fill="#000615"/>
<path d="M67.9913 22.5966V18.8387C67.9913 18.5408 67.9362 18.3423 67.8259 18.2393C67.7156 18.1364 67.5097 18.0849 67.2119 18.0849H64.9583C63.0467 18.0849 62.0908 17.1583 62.0908 15.3013V10.9918C62.0908 9.15326 63.0908 8.23767 65.0944 8.23767H68.1567C70.1603 8.23767 71.1603 9.15694 71.1603 10.9918V13.4407H67.9325V11.4367C67.9325 11.1389 67.8773 10.9403 67.767 10.8374C67.6568 10.7344 67.4509 10.6829 67.1531 10.6829H66.0943C65.7782 10.6829 65.5649 10.7344 65.4546 10.8374C65.3444 10.9403 65.2892 11.1389 65.2892 11.4367V14.9704C65.2892 15.2682 65.3444 15.4668 65.4546 15.5698C65.5649 15.6727 65.7782 15.7242 66.0943 15.7242H68.2928C70.2412 15.7242 71.2154 16.6324 71.2154 18.4526V23.0453C71.2154 24.8838 70.2044 25.7994 68.1825 25.7994H65.1752C63.1533 25.7994 62.1423 24.8801 62.1423 23.0453V20.6221H65.3407V22.5966C65.3407 22.8945 65.3958 23.0931 65.5061 23.196C65.6164 23.299 65.8296 23.3504 66.1458 23.3504H67.2046C67.5023 23.3504 67.7045 23.299 67.8185 23.196C67.9325 23.0931 67.9913 22.8945 67.9913 22.5966Z" fill="#000615"/>
<path d="M79.7588 8.23389H82.9572V23.0415C82.9572 24.88 81.9462 25.7956 79.9242 25.7956H76.531C74.509 25.7956 73.498 24.8763 73.498 23.0415V8.23389H76.7001V22.5965C76.7001 22.8944 76.7553 23.0929 76.8655 23.1959C76.9758 23.2989 77.1817 23.3503 77.4795 23.3503H78.9537C79.2698 23.3503 79.4831 23.2989 79.5934 23.1959C79.7036 23.0929 79.7588 22.8944 79.7588 22.5965V8.23389Z" fill="#000615"/>
<path d="M88.8029 18.9526V25.7993H85.6045V8.23389H92.0601C94.0821 8.23389 95.093 9.15316 95.093 10.988V16.1948C95.093 17.7171 94.4166 18.6069 93.06 18.868L95.9827 25.7993H92.5307L89.858 18.9526H88.8029ZM88.8029 10.6828V16.5845H91.1116C91.4094 16.5845 91.6116 16.533 91.7255 16.4301C91.8358 16.3271 91.891 16.1286 91.891 15.8307V11.4366C91.891 11.1388 91.8358 10.9402 91.7255 10.8373C91.6153 10.7343 91.4094 10.6828 91.1116 10.6828H88.8029Z" fill="#000615"/>
<path d="M104.776 25.7994L104.107 22.1517H100.265L99.6515 25.7994H96.4531L99.9861 8.23767H104.298L108 25.7994H104.776ZM100.688 19.7285H103.666L102.137 11.3227L100.688 19.7285Z" fill="#000615"/>
</svg>
