<svg width="173" height="34" viewBox="0 0 173 34" fill="none" xmlns="http://www.w3.org/2000/svg">
<path d="M31.1151 11.7475C32.0544 8.79341 31.4894 2.90009 29.6694 0.724384C29.4309 0.438985 28.987 0.479756 28.7888 0.794807L26.5469 4.34933C25.9929 5.06098 24.9949 5.22406 24.2427 4.72739C21.81 3.11878 18.904 2.18474 15.7814 2.18474C12.6589 2.18474 9.75292 3.11878 7.32023 4.72739C6.57171 5.22406 5.57368 5.05727 5.01596 4.34933L2.77407 0.794807C2.57593 0.479756 2.13195 0.442691 1.89345 0.724384C0.0735196 2.9038 -0.49154 8.79712 0.44778 11.7475C0.759664 12.7297 0.844056 13.7675 0.660595 14.7757C0.477134 15.7764 0.293673 16.9847 0.293673 17.8261C0.293673 26.4659 7.2285 33.4675 15.7778 33.4675C24.3307 33.4675 31.2619 26.4622 31.2619 17.8261C31.2619 16.9847 31.0784 15.7764 30.895 14.7757C30.7152 13.7675 30.8032 12.7297 31.1151 11.7475ZM15.7778 29.976C9.16585 29.976 3.79044 24.5423 3.79044 17.8632C3.79044 17.6445 3.79778 17.4295 3.80878 17.2146C4.04728 12.663 6.78452 8.77488 10.6555 6.92163C12.2076 6.17292 13.9468 5.75779 15.7814 5.75779C17.6161 5.75779 19.3516 6.17292 20.9073 6.92534C24.7784 8.77858 27.5156 12.6704 27.7541 17.2183C27.7651 17.4332 27.7725 17.6519 27.7725 17.8669C27.7688 24.5423 22.3897 29.976 15.7778 29.976Z" fill="#000615"/>
<path d="M20.9722 22.5262L17.9084 17.1592L15.2812 12.6855C15.2188 12.578 15.1051 12.515 14.984 12.515H12.4742C12.3495 12.515 12.2357 12.5817 12.1734 12.6929C12.111 12.8004 12.1147 12.9338 12.177 13.0413L14.6905 17.3075L11.3184 22.504C11.2487 22.6115 11.2451 22.7486 11.3038 22.8598C11.3625 22.971 11.4799 23.0414 11.6083 23.0414H14.1364C14.2538 23.0414 14.3639 22.9821 14.4263 22.8821L16.2499 20.0058L17.8863 22.8709C17.9487 22.9784 18.0625 23.0451 18.1836 23.0451H20.6749C20.7997 23.0451 20.9134 22.9784 20.9722 22.8709C21.0345 22.7672 21.0345 22.6337 20.9722 22.5262Z" fill="#000615"/>
<path d="M44.5578 8.76648H47.7599V26.3282H44.5578V18.8453H40.9403V26.3319H37.7383V8.76648H40.9403V16.3927H44.5578V8.76648Z" fill="#000615"/>
<path d="M57.6374 26.3318L56.9683 22.6842H53.1265L52.5126 26.3318H49.3105L52.8435 8.77011H57.1558L60.8578 26.3318H57.6374ZM53.5457 20.261H56.5235L54.9941 11.8552L53.5457 20.261Z" fill="#000615"/>
<path d="M67.9913 23.1291V19.3711C67.9913 19.0733 67.9362 18.8747 67.8259 18.7718C67.7156 18.6688 67.5097 18.6173 67.2119 18.6173H64.9583C63.0467 18.6173 62.0908 17.6907 62.0908 15.8338V11.5242C62.0908 9.6857 63.0908 8.77011 65.0944 8.77011H68.1567C70.1603 8.77011 71.1603 9.68938 71.1603 11.5242V13.9732H67.9325V11.9692C67.9325 11.6713 67.8773 11.4728 67.767 11.3698C67.6568 11.2668 67.4509 11.2154 67.1531 11.2154H66.0943C65.7782 11.2154 65.5649 11.2668 65.4546 11.3698C65.3444 11.4728 65.2892 11.6713 65.2892 11.9692V15.5028C65.2892 15.8007 65.3444 15.9992 65.4546 16.1022C65.5649 16.2052 65.7782 16.2566 66.0943 16.2566H68.2928C70.2412 16.2566 71.2154 17.1649 71.2154 18.985V23.5777C71.2154 25.4162 70.2044 26.3318 68.1825 26.3318H65.1752C63.1533 26.3318 62.1423 25.4126 62.1423 23.5777V21.1545H65.3407V23.1291C65.3407 23.4269 65.3958 23.6255 65.5061 23.7285C65.6164 23.8314 65.8296 23.8829 66.1458 23.8829H67.2046C67.5023 23.8829 67.7045 23.8314 67.8185 23.7285C67.9325 23.6255 67.9913 23.4269 67.9913 23.1291Z" fill="#000615"/>
<path d="M79.7588 8.76636H82.9572V23.5739C82.9572 25.4125 81.9462 26.3281 79.9242 26.3281H76.531C74.509 26.3281 73.498 25.4088 73.498 23.5739V8.76636H76.7001V23.129C76.7001 23.4269 76.7553 23.6254 76.8655 23.7284C76.9758 23.8313 77.1817 23.8828 77.4795 23.8828H78.9537C79.2698 23.8828 79.4831 23.8313 79.5934 23.7284C79.7036 23.6254 79.7588 23.4269 79.7588 23.129V8.76636Z" fill="#000615"/>
<path d="M88.8029 19.485V26.3318H85.6045V8.76636H92.0601C94.0821 8.76636 95.093 9.68563 95.093 11.5205V16.7272C95.093 18.2495 94.4166 19.1394 93.06 19.4005L95.9827 26.3318H92.5307L89.858 19.485H88.8029ZM88.8029 11.2153V17.117H91.1116C91.4094 17.117 91.6116 17.0655 91.7255 16.9626C91.8358 16.8596 91.891 16.661 91.891 16.3632V11.9691C91.891 11.6712 91.8358 11.4727 91.7255 11.3697C91.6153 11.2668 91.4094 11.2153 91.1116 11.2153H88.8029Z" fill="#000615"/>
<path d="M104.776 26.3318L104.107 22.6842H100.265L99.6515 26.3318H96.4531L99.9861 8.77011H104.298L108 26.3318H104.776ZM100.688 20.261H103.666L102.137 11.8552L100.688 20.261Z" fill="#000615"/>
<rect x="116" y="5" width="57" height="24" rx="12" fill="#80A3FF"/>
<path d="M129.031 10.7211H133.702C135.116 10.7211 135.823 11.3633 135.823 12.6476V21.0735C135.823 22.3578 135.116 23 133.702 23H129.031V10.7211ZM133.565 20.84V12.8811C133.565 12.6736 133.526 12.5373 133.449 12.4725C133.371 12.3946 133.228 12.3557 133.021 12.3557H131.269V21.3654H133.021C133.228 21.3654 133.371 21.333 133.449 21.2681C133.526 21.1903 133.565 21.0476 133.565 20.84ZM139.662 10.7211H142.036C143.45 10.7211 144.157 11.3633 144.157 12.6476V21.0735C144.157 22.3578 143.45 23 142.036 23H139.662C138.248 23 137.541 22.3578 137.541 21.0735V12.6476C137.541 11.3633 138.248 10.7211 139.662 10.7211ZM141.919 20.7622V12.959C141.919 12.7514 141.88 12.6152 141.802 12.5503C141.724 12.4725 141.582 12.4336 141.374 12.4336H140.343C140.122 12.4336 139.973 12.4725 139.895 12.5503C139.817 12.6152 139.779 12.7514 139.779 12.959V20.7622C139.779 20.9697 139.817 21.1124 139.895 21.1903C139.973 21.2551 140.122 21.2876 140.343 21.2876H141.374C141.582 21.2876 141.724 21.2551 141.802 21.1903C141.88 21.1124 141.919 20.9697 141.919 20.7622ZM152.383 14.7881H150.125V12.8811C150.125 12.6736 150.086 12.5373 150.009 12.4725C149.931 12.3946 149.788 12.3557 149.58 12.3557H148.666C148.458 12.3557 148.316 12.3946 148.238 12.4725C148.16 12.5373 148.121 12.6736 148.121 12.8811V20.8595C148.121 21.067 148.16 21.2097 148.238 21.2876C148.316 21.3524 148.458 21.3849 148.666 21.3849H149.58C149.788 21.3849 149.931 21.3524 150.009 21.2876C150.086 21.2097 150.125 21.067 150.125 20.8595V18.9914H152.383V21.093C152.383 22.3773 151.676 23.0195 150.262 23.0195H147.985C146.571 23.0195 145.864 22.3773 145.864 21.093V12.6476C145.864 11.3633 146.571 10.7211 147.985 10.7211H150.262C151.676 10.7211 152.383 11.3633 152.383 12.6476V14.7881ZM157.853 20.7622V18.1352C157.853 17.9276 157.814 17.7914 157.737 17.7265C157.659 17.6487 157.516 17.6097 157.308 17.6097H155.732C154.396 17.6097 153.728 16.9611 153.728 15.6638V12.6476C153.728 11.3633 154.428 10.7211 155.83 10.7211H157.97C159.371 10.7211 160.072 11.3633 160.072 12.6476V14.36H157.814V12.959C157.814 12.7514 157.775 12.6152 157.698 12.5503C157.62 12.4725 157.477 12.4336 157.27 12.4336H156.53C156.31 12.4336 156.16 12.4725 156.082 12.5503C156.005 12.6152 155.966 12.7514 155.966 12.959V15.4303C155.966 15.6379 156.005 15.7806 156.082 15.8584C156.16 15.9233 156.31 15.9557 156.53 15.9557H158.067C159.429 15.9557 160.111 16.5914 160.111 17.8627V21.0735C160.111 22.3578 159.404 23 157.989 23H155.888C154.474 23 153.767 22.3578 153.767 21.0735V19.3806H156.005V20.7622C156.005 20.9697 156.044 21.1124 156.121 21.1903C156.199 21.2551 156.348 21.2876 156.569 21.2876H157.308C157.516 21.2876 157.659 21.2551 157.737 21.1903C157.814 21.1124 157.853 20.9697 157.853 20.7622Z" fill="white"/>
</svg>
